<mxfile host="65bd71144e" scale="1" border="10">
    <diagram id="-rriOPSDnHkLpZKLwRpb" name="Page-1">
        <mxGraphModel dx="3196" dy="2639" grid="1" gridSize="10" guides="1" tooltips="1" connect="1" arrows="1" fold="1" page="1" pageScale="1" pageWidth="850" pageHeight="1100" background="#FFFFFF" math="0" shadow="0">
            <root>
                <mxCell id="0"/>
                <mxCell id="1" parent="0"/>
                <mxCell id="595" value="" style="edgeStyle=none;html=1;endArrow=none;endFill=0;" parent="1" target="600" edge="1">
                    <mxGeometry x="-0.4777" y="20" relative="1" as="geometry">
                        <mxPoint as="offset"/>
                        <mxPoint x="-2067.392313791986" y="-1690.5489255167943" as="sourcePoint"/>
                    </mxGeometry>
                </mxCell>
                <mxCell id="600" value="&lt;font color=&quot;#ff0000&quot;&gt;CONTENUTO&lt;br&gt;MULTIMEDIALE&lt;/font&gt;" style="rounded=0;whiteSpace=wrap;html=1;strokeColor=#FF0000;" parent="1" vertex="1">
                    <mxGeometry x="-2127.61" y="-1650.4299999999998" width="120" height="40" as="geometry"/>
                </mxCell>
                <mxCell id="603" value="" style="endArrow=oval;html=1;fillStyle=auto;strokeWidth=1;startSize=6;endSize=6;fillColor=#000000;startArrow=none;startFill=0;endFill=0;exitX=0.117;exitY=1.013;exitDx=0;exitDy=0;exitPerimeter=0;" parent="1" source="600" edge="1">
                    <mxGeometry width="50" height="50" relative="1" as="geometry">
                        <mxPoint x="-2109.9020980926425" y="-1579.4299999999998" as="sourcePoint"/>
                        <mxPoint x="-2147.42" y="-1600" as="targetPoint"/>
                    </mxGeometry>
                </mxCell>
                <mxCell id="604" value="LIS" style="edgeLabel;html=1;align=center;verticalAlign=middle;resizable=0;points=[];" parent="603" vertex="1" connectable="0">
                    <mxGeometry x="0.4791" y="1" relative="1" as="geometry">
                        <mxPoint x="-29" y="2" as="offset"/>
                    </mxGeometry>
                </mxCell>
                <mxCell id="620" value="" style="endArrow=none;html=1;fontSize=11;exitX=0.193;exitY=1.011;exitDx=0;exitDy=0;exitPerimeter=0;entryX=0;entryY=0;entryDx=0;entryDy=0;strokeColor=#FF0000;" parent="1" target="621" edge="1">
                    <mxGeometry width="50" height="50" relative="1" as="geometry">
                        <mxPoint x="-2028.2299999999996" y="-1610.4299999999998" as="sourcePoint"/>
                        <mxPoint x="-2011.42" y="-1602" as="targetPoint"/>
                    </mxGeometry>
                </mxCell>
                <mxCell id="621" value="" style="ellipse;whiteSpace=wrap;html=1;aspect=fixed;fontSize=11;strokeColor=#FF0000;" parent="1" vertex="1">
                    <mxGeometry x="-2011.07" y="-1602.2" width="5.92" height="5.92" as="geometry"/>
                </mxCell>
                <mxCell id="622" value="&lt;font color=&quot;#ff0000&quot;&gt;numero &lt;br&gt;likert&lt;/font&gt;" style="text;html=1;align=center;verticalAlign=middle;resizable=0;points=[];autosize=1;strokeColor=none;fillColor=none;fontSize=11;" parent="1" vertex="1">
                    <mxGeometry x="-2015.42" y="-1619.24" width="60" height="40" as="geometry"/>
                </mxCell>
                <mxCell id="648" value="" style="shape=flexArrow;endArrow=classic;html=1;strokeColor=#FF0000;fontColor=#FF0000;fillColor=#FF0000;" parent="1" edge="1">
                    <mxGeometry width="50" height="50" relative="1" as="geometry">
                        <mxPoint x="-2230" y="-1631" as="sourcePoint"/>
                        <mxPoint x="-2150" y="-1630.85" as="targetPoint"/>
                    </mxGeometry>
                </mxCell>
                <mxCell id="679" value="" style="endArrow=oval;html=1;fillStyle=auto;strokeWidth=1;startSize=6;endSize=6;fillColor=#000000;startArrow=none;startFill=0;endFill=0;fontSize=11;strokeColor=#FF0000;" parent="1" edge="1">
                    <mxGeometry width="50" height="50" relative="1" as="geometry">
                        <mxPoint x="-2103" y="-1611" as="sourcePoint"/>
                        <mxPoint x="-2125.3899999999994" y="-1586.08" as="targetPoint"/>
                    </mxGeometry>
                </mxCell>
                <mxCell id="680" value="&lt;font color=&quot;#ff0000&quot;&gt;totale&lt;br&gt;likert&lt;/font&gt;" style="text;html=1;align=center;verticalAlign=middle;resizable=0;points=[];autosize=1;strokeColor=none;fillColor=none;fontSize=11;" parent="1" vertex="1">
                    <mxGeometry x="-2161" y="-1590.6000000000001" width="50" height="40" as="geometry"/>
                </mxCell>
                <mxCell id="683" value="" style="endArrow=oval;html=1;fillStyle=auto;strokeWidth=1;startSize=6;endSize=6;fillColor=#000000;startArrow=none;startFill=0;endFill=0;exitX=0.109;exitY=0.001;exitDx=0;exitDy=0;exitPerimeter=0;" edge="1" parent="1">
                    <mxGeometry width="50" height="50" relative="1" as="geometry">
                        <mxPoint x="-2115.93" y="-1650.5100000000002" as="sourcePoint"/>
                        <mxPoint x="-2137.8199999999997" y="-1666.12" as="targetPoint"/>
                    </mxGeometry>
                </mxCell>
                <mxCell id="684" value="titolo" style="edgeLabel;html=1;align=center;verticalAlign=middle;resizable=0;points=[];" vertex="1" connectable="0" parent="683">
                    <mxGeometry x="0.4791" y="1" relative="1" as="geometry">
                        <mxPoint x="-23" y="-8" as="offset"/>
                    </mxGeometry>
                </mxCell>
                <mxCell id="685" style="edgeStyle=none;shape=connector;rounded=1;fillStyle=auto;html=1;labelBackgroundColor=default;strokeColor=default;strokeWidth=1;fontFamily=Helvetica;fontSize=11;fontColor=default;endArrow=none;endFill=0;startSize=6;endSize=6;fillColor=#000000;startArrow=oval;startFill=0;" edge="1" parent="1">
                    <mxGeometry relative="1" as="geometry">
                        <mxPoint x="-2097.8165439371624" y="-1650.5499999999997" as="targetPoint"/>
                        <mxPoint x="-2106.8199999999997" y="-1674.12" as="sourcePoint"/>
                    </mxGeometry>
                </mxCell>
                <mxCell id="686" value="premium" style="edgeLabel;html=1;align=center;verticalAlign=middle;resizable=0;points=[];fontSize=11;fontFamily=Helvetica;fontColor=default;" vertex="1" connectable="0" parent="685">
                    <mxGeometry x="-0.2572" y="1" relative="1" as="geometry">
                        <mxPoint x="-7" y="-19" as="offset"/>
                    </mxGeometry>
                </mxCell>
                <mxCell id="687" value="&lt;font color=&quot;#ff0000&quot; style=&quot;font-size: 11px;&quot;&gt;URL&lt;/font&gt;" style="text;html=1;align=center;verticalAlign=middle;resizable=0;points=[];autosize=1;strokeColor=none;fillColor=none;" vertex="1" parent="1">
                    <mxGeometry x="-2029.4299999999998" y="-1691.63" width="50" height="30" as="geometry"/>
                </mxCell>
                <mxCell id="688" value="" style="endArrow=oval;html=1;fillStyle=auto;strokeWidth=1;startSize=6;endSize=6;fillColor=#000000;startArrow=none;startFill=0;endFill=1;exitX=0.821;exitY=0.003;exitDx=0;exitDy=0;exitPerimeter=0;strokeColor=#FF0000;" edge="1" parent="1">
                    <mxGeometry width="50" height="50" relative="1" as="geometry">
                        <mxPoint x="-2030.4899999999998" y="-1650.4299999999998" as="sourcePoint"/>
                        <mxPoint x="-2018.8199999999997" y="-1670.12" as="targetPoint"/>
                    </mxGeometry>
                </mxCell>
            </root>
        </mxGraphModel>
    </diagram>
</mxfile>